<svg width="24" height="24" viewBox="0 0 24 24" fill="none" xmlns="http://www.w3.org/2000/svg">
<path d="M11.9206 3.96914C12.9753 3.95872 14.0216 4.15613 15 4.5501L11.9206 3.96914ZM11.9206 3.96914C10.866 3.97956 9.82372 4.19761 8.85335 4.61083M11.9206 3.96914L8.85335 4.61083M8.85335 4.61083C7.88298 5.02405 7.00349 5.62435 6.26512 6.37746M8.85335 4.61083L6.26512 6.37746M6.26512 6.37746C5.52675 7.13058 4.94394 8.02175 4.54997 9.00009M6.26512 6.37746L4.54997 9.00009M4.54997 9.00009C3.75432 10.976 3.77617 13.187 4.61071 15.1467M4.54997 9.00009V9.00009C4.17195 10.7331 4.13898 12.5237 4.45294 14.2695L4.61071 15.1467M4.61071 15.1467C5.44524 17.1065 7.02411 18.6544 8.99997 19.4501L8.74656 19.2808C7.10987 18.1877 5.7045 16.783 4.61071 15.1467V15.1467ZM8.99997 15.0001V20.0001H3.99997" stroke="white" stroke-width="1.5" stroke-linecap="round" stroke-linejoin="round"/>
<path d="M18.37 7.15991V7.16991" stroke="white" stroke-width="1.5" stroke-linecap="round" stroke-linejoin="round"/>
<path d="M13 19.9399V19.9499" stroke="white" stroke-width="1.5" stroke-linecap="round" stroke-linejoin="round"/>
<path d="M16.84 18.3701V18.3801" stroke="white" stroke-width="1.5" stroke-linecap="round" stroke-linejoin="round"/>
<path d="M19.37 15.1001V15.1101" stroke="white" stroke-width="1.5" stroke-linecap="round" stroke-linejoin="round"/>
<path d="M19.94 11V11.01" stroke="white" stroke-width="1.5" stroke-linecap="round" stroke-linejoin="round"/>
</svg>
